<svg width="138" height="47" viewBox="0 0 138 47" fill="none" xmlns="http://www.w3.org/2000/svg">
<rect x="0.857971" y="9.37537" width="134.291" height="37.0917" rx="7.03058" transform="rotate(-4 0.857971 9.37537)" fill="#222123"/>
<path d="M23.862 18.4916L26.6256 23.6919L32.5111 23.8962L28.4193 28.1315L30.0438 33.792L24.7513 31.2093L19.8699 34.5034L20.6907 28.6719L16.0493 25.0473L21.8491 24.0259L23.862 18.4916Z" stroke="white" stroke-width="2.34353" stroke-linejoin="round"/>
<path d="M48.2313 27.5807L44.5123 27.8407L43.9588 29.9648L41.7534 30.1191L44.65 19.7716L47.0335 19.6049L51.3147 29.4505L49.0271 29.6104L48.2313 27.5807ZM47.5206 25.8822L45.9826 21.9978L44.9591 26.0613L47.5206 25.8822ZM56.5133 29.2865C55.8969 29.3296 55.3929 29.241 55.0012 29.0206C54.7672 28.8901 54.5074 28.6514 54.2216 28.3043L54.2872 29.2426L52.3763 29.3762L51.6713 19.2944L53.6164 19.1584L53.8674 22.7473C54.0897 22.383 54.3429 22.0992 54.6269 21.8958C54.9625 21.6429 55.402 21.4975 55.9453 21.4595C56.927 21.3908 57.7189 21.6911 58.3209 22.3602C58.9274 23.0289 59.2698 23.9227 59.348 25.0414C59.4291 26.2011 59.2224 27.1814 58.7278 27.9823C58.2332 28.7831 57.495 29.2179 56.5133 29.2865ZM57.3145 25.39C57.2775 24.8604 57.1783 24.4268 57.0171 24.0894C56.7109 23.4501 56.2084 23.1548 55.5098 23.2037C54.8021 23.2532 54.3383 23.6091 54.1185 24.2714C54.0055 24.6235 53.9679 25.0711 54.0059 25.6145C54.0506 26.2538 54.2292 26.7735 54.5417 27.1738C54.8542 27.5741 55.3003 27.7539 55.8802 27.7134C56.3825 27.6783 56.7587 27.4478 57.0088 27.0219C57.2589 26.5961 57.3608 26.0521 57.3145 25.39ZM66.7897 21.8161C67.475 22.562 67.8554 23.4737 67.9307 24.5513C68.0074 25.6472 67.7579 26.6075 67.1824 27.4324C66.6066 28.2527 65.6771 28.7077 64.3941 28.7974C63.111 28.8871 62.1273 28.5659 61.4429 27.8337C60.7582 27.097 60.3775 26.1807 60.3009 25.0848C60.2255 24.0073 60.4753 23.0515 61.0502 22.2175C61.625 21.3835 62.554 20.9216 63.8371 20.8319C65.1201 20.7422 66.1043 21.0703 66.7897 21.8161ZM63.9456 22.483C63.3749 22.5229 62.9485 22.7569 62.6664 23.185C62.3886 23.6082 62.2758 24.1943 62.3282 24.9431C62.3806 25.6919 62.5739 26.2588 62.9082 26.6438C63.2472 27.0285 63.702 27.2009 64.2727 27.1609C64.8435 27.121 65.2676 26.8872 65.5451 26.4594C65.8227 26.0317 65.9352 25.4434 65.8829 24.6945C65.8305 23.9457 65.6373 23.3811 65.3033 23.0006C64.9689 22.6157 64.5164 22.4431 63.9456 22.483ZM72.6874 21.9062C72.0254 21.9524 71.5907 22.265 71.3834 22.8439C71.2763 23.1496 71.2389 23.5331 71.2711 23.9943L71.5537 28.0352L69.6086 28.1712L69.0875 20.7194L70.971 20.5877L71.0471 21.6767C71.2714 21.2756 71.4896 20.9828 71.7015 20.7982C72.0822 20.4687 72.5808 20.2824 73.1972 20.2393C73.9689 20.1854 74.6132 20.3445 75.1302 20.7167C75.6514 21.084 75.9448 21.7357 76.0102 22.6718L76.3617 27.699L74.3618 27.8388L74.0443 23.2979C74.0168 22.9052 73.9432 22.6075 73.8235 22.4048C73.6049 22.0347 73.2262 21.8685 72.6874 21.9062ZM84.4068 24.934C84.3876 25.3804 84.1884 25.8463 83.8094 26.3316C83.2209 27.1024 82.3514 27.5279 81.2007 27.6084C80.251 27.6748 79.3917 27.4275 78.6229 26.8664C77.8542 26.3053 77.4216 25.3353 77.3251 23.9563C77.2348 22.6641 77.492 21.6505 78.0967 20.9154C78.706 20.1799 79.5334 19.7756 80.5791 19.7025C81.2001 19.6591 81.7675 19.7364 82.2815 19.9345C82.7955 20.1325 83.2322 20.4714 83.5915 20.951C83.9147 21.3734 84.1401 21.8739 84.2677 22.4522C84.3419 22.7912 84.3969 23.2829 84.4328 23.9273L79.3234 24.2846C79.4031 25.0315 79.675 25.5402 80.139 25.8106C80.4215 25.979 80.7522 26.0499 81.1312 26.0234C81.533 25.9953 81.8515 25.8583 82.0867 25.6124C82.215 25.4796 82.3241 25.2999 82.4137 25.0734L84.4068 24.934ZM82.3154 22.7815C82.2474 22.2677 82.0626 21.8884 81.7609 21.6433C81.4636 21.3934 81.1071 21.283 80.6916 21.312C80.2396 21.3436 79.8979 21.5098 79.6666 21.8104C79.4398 22.1108 79.3114 22.5052 79.2813 22.9936L82.3154 22.7815ZM94.5246 26.7111C93.0817 26.812 91.9516 26.4964 91.1341 25.7644C90.0439 24.8725 89.4355 23.5202 89.3087 21.7074C89.1794 19.8582 89.5937 18.4343 90.5517 17.4359C91.2593 16.5972 92.3346 16.1274 93.7774 16.0266C95.2203 15.9257 96.3505 16.2412 97.1679 16.9733C98.251 17.829 98.8571 19.1815 98.9865 21.0307C99.1132 22.8434 98.7012 24.2671 97.7503 25.3017C97.0427 26.1404 95.9675 26.6102 94.5246 26.7111ZM96.328 23.8595C96.7735 23.2089 96.9564 22.3152 96.8769 21.1782C96.7978 20.0458 96.4901 19.1887 95.9538 18.6067C95.4218 18.0199 94.738 17.7557 93.9024 17.8142C93.0669 17.8726 92.4218 18.2274 91.9672 18.8786C91.5126 19.5299 91.325 20.4239 91.4045 21.5609C91.484 22.6978 91.7942 23.5571 92.335 24.1387C92.8758 24.7203 93.564 24.9819 94.3996 24.9235C95.2352 24.8651 95.878 24.5104 96.328 23.8595ZM100.134 15.8917L102.086 15.7553L102.792 25.8508L100.84 25.9873L100.134 15.8917Z" fill="white"/>
<path d="M121.91 16.93L117.149 22.4064L111.673 17.6458" stroke="white" stroke-width="2.34353"/>
</svg>
